<?xml version="1.0" encoding="iso-8859-1"?>
<!-- Uploaded to: SVG Repo, www.svgrepo.com, Generator: SVG Repo Mixer Tools -->
<svg version="1.1" id="Layer_1" xmlns="http://www.w3.org/2000/svg" xmlns:xlink="http://www.w3.org/1999/xlink" 
	 viewBox="0 0 512 512" xml:space="preserve">
<circle style="fill:#E5E5E5;" cx="256" cy="256" r="256"/>
<rect x="167.992" y="456" style="fill:#CCCCCC;" width="176" height="8"/>
<polygon style="fill:#ADADAD;" points="311.992,455.96 199.992,455.96 207.992,399.96 303.992,399.96 "/>
<path style="fill:#CCCCCC;" d="M447.992,359.96v32c0,4.4-3.6,8-8,8h-368c-4.4,0-8-3.6-8-8v-32H447.992z"/>
<rect id="SVGCleanerId_0" x="79.992" y="120" style="fill:#FFFFFF;" width="352" height="224"/>
<path style="fill:#3B3B3B;" d="M439.992,103.96h-368c-4.4,0-8,3.6-8,8v248h384v-248C447.992,107.56,444.392,103.96,439.992,103.96z
	 M431.992,343.96h-352v-224h352V343.96z"/>
<g>
	<rect id="SVGCleanerId_0_1_" x="79.992" y="120" style="fill:#FFFFFF;" width="352" height="224"/>
</g>
<g>
	<rect x="136" y="223.92" style="fill:#CCCCCC;" width="240" height="96"/>
	<rect x="136" y="191.92" style="fill:#CCCCCC;" width="240" height="8"/>
	<rect x="136" y="167.92" style="fill:#CCCCCC;" width="240" height="8"/>
	<rect x="136" y="143.92" style="fill:#CCCCCC;" width="240" height="8"/>
</g>
</svg>